<?xml version="1.0" standalone="no"?>
<!DOCTYPE svg PUBLIC "-//W3C//DTD SVG 20010904//EN"
 "http://www.w3.org/TR/2001/REC-SVG-20010904/DTD/svg10.dtd">
<svg version="1.0" xmlns="http://www.w3.org/2000/svg"
 width="320.000000pt" height="320.000000pt" viewBox="0 0 320.000000 320.000000"
 preserveAspectRatio="xMidYMid meet">
<metadata>
Created by potrace 1.14, written by Peter Selinger 2001-2017
</metadata>
<g transform="translate(0.000000,320.000000) scale(0.100000,-0.100000)"
fill="#000000" stroke="none">
<path d="M1302 3048 c-18 -18 -15 -28 10 -28 12 0 19 -2 16 -5 -3 -3 -67 1
-143 10 -200 22 -225 21 -251 -12 -17 -21 -29 -27 -55 -25 -28 1 -38 -4 -59
-33 -19 -26 -32 -35 -55 -35 -28 0 -38 -12 -122 -137 -50 -76 -125 -203 -166
-283 -74 -144 -75 -146 -59 -173 10 -16 23 -25 31 -22 9 4 11 0 6 -12 -34 -81
-44 -116 -38 -128 5 -7 31 -38 60 -67 36 -38 49 -59 43 -68 -6 -10 10 -35 52
-84 85 -98 90 -102 166 -126 39 -13 81 -36 102 -55 50 -45 99 -81 161 -115 67
-37 39 -40 -46 -5 -64 26 -351 131 -397 145 -16 5 -28 6 -28 2 0 -4 -13 15
-28 43 -18 34 -46 63 -87 91 -119 84 -98 85 -218 -11 -58 -46 -107 -90 -109
-97 -7 -21 11 -121 28 -155 18 -34 83 -85 138 -108 42 -18 103 -19 143 -4 25
9 30 8 43 -13 44 -70 202 -160 394 -227 l89 -32 22 21 22 20 15 -39 c15 -38
20 -41 93 -63 l76 -22 50 -84 c27 -46 49 -86 49 -88 0 -2 -7 -4 -17 -4 -31 0
-114 -62 -133 -100 -19 -37 -19 -39 -1 -92 28 -82 69 -156 95 -173 13 -9 57
-25 98 -36 68 -18 75 -23 97 -62 64 -112 96 -130 255 -143 82 -6 83 -6 115 23
l33 29 -22 81 c-13 45 -20 88 -17 96 4 10 31 16 95 21 l91 7 79 -64 c43 -35
104 -79 134 -97 49 -29 54 -35 42 -48 -18 -17 -10 -29 8 -15 15 12 49 13 43 2
-3 -4 14 -16 37 -27 64 -29 74 -32 87 -19 8 8 11 6 11 -7 0 -10 -9 -20 -20
-23 -25 -7 -25 -12 -2 -30 14 -13 13 -13 -8 0 -14 8 -24 21 -23 28 4 21 -89
61 -121 53 -14 -3 -23 -11 -19 -17 4 -6 -2 -8 -15 -5 -14 4 -20 2 -15 -5 4 -7
-2 -8 -18 -3 -13 4 -46 10 -74 13 -27 2 -65 11 -83 20 -19 8 -44 12 -57 9 -13
-3 -25 -1 -27 5 -2 6 -24 15 -48 19 -42 8 -47 6 -84 -27 l-39 -36 -84 7 c-122
10 -171 28 -213 76 -19 22 -46 42 -60 45 -14 2 -46 9 -72 16 -25 6 -68 8 -95
4 -26 -4 -56 -7 -65 -8 -10 -1 -18 -4 -18 -8 0 -3 -18 -9 -40 -13 -22 -3 -40
-11 -40 -16 0 -6 -3 -9 -8 -8 -4 2 -16 -6 -27 -17 -17 -17 -36 -21 -95 -23
-75 -3 -146 -21 -187 -47 -11 -8 -37 -16 -56 -18 -36 -3 -149 -64 -187 -99
-11 -11 -24 -17 -28 -14 -5 3 -22 -5 -38 -17 -45 -34 -220 -210 -233 -235
l-12 -22 1398 0 1397 0 -30 32 c-16 18 -33 36 -39 40 -23 16 -49 39 -36 32 9
-5 12 -3 7 5 -4 6 -11 9 -15 7 -4 -3 -17 4 -29 14 -12 11 -26 20 -32 20 -5 0
-10 5 -10 11 0 5 -5 7 -10 4 -6 -3 -13 1 -16 9 -3 9 -10 13 -15 10 -5 -3 -18
4 -30 15 -12 11 -26 18 -30 15 -4 -2 -12 4 -18 13 -6 10 -11 15 -11 11 0 -4
-12 4 -26 17 -14 13 -23 29 -19 34 3 6 -1 11 -10 11 -9 0 -23 7 -31 15 -9 8
-24 15 -35 15 -10 0 -19 5 -19 10 0 6 9 10 21 10 33 0 -53 67 -104 81 -23 6
-58 18 -79 26 -20 8 -41 12 -47 9 -24 -15 -9 5 22 28 l33 25 41 -20 c22 -11
56 -22 75 -26 34 -5 36 -3 67 50 17 30 31 60 31 67 0 31 -82 119 -136 146 -39
20 -78 54 -137 120 -98 109 -143 182 -152 246 l-6 47 33 -5 c87 -11 260 -23
273 -18 9 4 26 -4 40 -18 27 -27 115 -58 167 -58 91 0 101 128 16 207 -29 28
-89 53 -125 53 -20 1 -47 18 -92 60 -62 56 -64 60 -52 87 19 43 59 68 109 66
24 -1 62 5 85 13 31 11 42 12 48 2 6 -9 31 -6 108 12 l101 24 12 37 c12 42 23
47 122 51 46 1 60 -2 68 -15 10 -18 58 -22 117 -11 l31 7 0 158 c0 99 -4 159
-10 159 -5 0 -10 -7 -10 -15 0 -8 -6 -12 -13 -9 -8 3 -33 -2 -57 -10 -39 -13
-45 -13 -55 1 -18 24 -111 0 -147 -38 -15 -16 -36 -29 -47 -29 -12 0 -26 -9
-33 -20 -7 -11 -17 -20 -22 -20 -5 0 -40 -9 -78 -21 -55 -16 -73 -26 -88 -51
-10 -17 -32 -37 -49 -44 l-31 -13 52 102 c28 56 55 120 58 142 4 22 19 80 34
129 18 62 26 111 26 166 0 71 -2 80 -24 97 -20 16 -25 31 -30 98 -4 44 -3 92
1 108 5 15 6 48 4 73 -3 41 -7 48 -32 57 -18 7 -29 19 -29 30 0 32 -19 55 -49
62 -22 5 -31 14 -36 36 -8 34 -23 44 -82 54 -26 4 -43 12 -45 22 -2 9 -14 17
-28 18 -14 1 -142 25 -285 53 -292 58 -445 84 -620 107 -144 18 -158 18 -173
3z m-170 -241 c-27 -14 -103 -149 -93 -165 3 -6 19 -13 34 -16 83 -18 73 -23
117 63 22 44 37 86 34 94 -4 12 26 9 153 -13 142 -25 379 -75 474 -100 l36
-10 -47 -92 c-27 -50 -46 -98 -43 -105 5 -12 90 -43 119 -43 13 0 84 160 84
190 0 18 2 18 51 2 38 -13 56 -26 72 -54 12 -19 35 -55 50 -78 l29 -43 -27
-63 c-15 -36 -30 -66 -34 -68 -4 -3 -92 22 -196 55 -300 95 -835 226 -1037
254 -27 3 -48 11 -48 16 0 5 12 28 27 50 22 34 30 39 52 34 21 -4 29 0 43 25
14 25 23 30 53 30 23 0 38 5 42 16 6 16 37 32 63 33 8 0 5 -5 -8 -12z m71 -4
c-7 -2 -19 -2 -25 0 -7 3 -2 5 12 5 14 0 19 -2 13 -5z m730 -150 c-7 -2 -19
-2 -25 0 -7 3 -2 5 12 5 14 0 19 -2 13 -5z m44 -9 c-3 -3 -12 -4 -19 -1 -8 3
-5 6 6 6 11 1 17 -2 13 -5z m403 -1281 c0 -11 -35 -32 -52 -33 -12 0 -18 8
-18 23 0 20 4 23 35 19 19 -2 35 -7 35 -9z m104 -1008 c11 -8 16 -15 10 -15
-5 0 -18 7 -28 15 -11 8 -16 15 -10 15 5 0 18 -7 28 -15z"/>
<path d="M1022 527 c-12 -12 -30 -22 -40 -23 -47 -7 -86 -21 -90 -32 -5 -15
44 -17 53 -2 9 15 27 12 19 -2 -4 -8 -3 -10 2 -5 5 5 9 14 9 20 0 7 7 11 16 9
8 -1 26 9 39 23 29 31 23 39 -8 12z"/>
<path d="M964 528 c-3 -4 4 -8 15 -8 11 0 22 4 25 8 2 4 -4 8 -15 8 -11 0 -23
-4 -25 -8z"/>
</g>
</svg>
